HIERARCHY
ROOT Hips
{
	OFFSET 0.000000 0.000000 0.000000
	CHANNELS 6 Xposition Yposition Zposition Zrotation Yrotation Xrotation 
	JOINT LeftUpLeg_virtual
	{
		OFFSET 0.000000 0.000000 0.000000
		CHANNELS 3 Zrotation Yrotation Xrotation
		JOINT LeftUpLeg
		{
			OFFSET 10.205400 -3.823500 0.155100
			CHANNELS 3 Zrotation Yrotation Xrotation
			JOINT LeftLeg
			{
				OFFSET 0.708757 -12.982077 0.567790
				CHANNELS 3 Zrotation Yrotation Xrotation
				JOINT LeftFoot
				{
					OFFSET -0.708756 -10.717838 -2.184338
					CHANNELS 3 Zrotation Yrotation Xrotation
					JOINT LeftToeBase
					{
						OFFSET 0.108149 -7.191104 7.560241
						CHANNELS 3 Zrotation Yrotation Xrotation
						End Site
						{
							OFFSET 0.000000 0.000000 0.000000
						}
					}
				}
			}
		}
	}
	JOINT RightUpLeg_virtual
	{
		OFFSET 0.000000 0.000000 0.000000
		CHANNELS 3 Zrotation Yrotation Xrotation
		JOINT RightUpLeg
		{
			OFFSET -10.205400 -3.823500 0.005500
			CHANNELS 3 Zrotation Yrotation Xrotation
			JOINT RightLeg
			{
				OFFSET -0.708756 -12.982134 0.610632
				CHANNELS 3 Zrotation Yrotation Xrotation
				JOINT RightFoot
				{
					OFFSET 0.708754 -10.717769 -1.945823
					CHANNELS 3 Zrotation Yrotation Xrotation
					JOINT RightToeBase
					{
						OFFSET -0.108140 -7.191069 7.372968
						CHANNELS 3 Zrotation Yrotation Xrotation
						End Site
						{
							OFFSET 0.000000 0.000000 0.000000
						}
					}
				}
			}
		}
	}
	JOINT Spine_virtual
	{
		OFFSET 0.000000 0.000000 0.000000
		CHANNELS 3 Zrotation Yrotation Xrotation
		JOINT Spine
		{
			OFFSET 0.000000 6.876099 0.125700
			CHANNELS 3 Zrotation Yrotation Xrotation
			JOINT Spine1
			{
				OFFSET 0.000000 8.022060 0.146608
				CHANNELS 3 Zrotation Yrotation Xrotation
				JOINT Spine2
				{
					OFFSET 0.000000 9.168068 0.167552
					CHANNELS 3 Zrotation Yrotation Xrotation
					JOINT Neck_virtual
					{
						OFFSET 0.000000 0.000000 0.000000
						CHANNELS 3 Zrotation Yrotation Xrotation
						JOINT Neck
						{
							OFFSET 0.000000 10.314075 0.188496
							CHANNELS 3 Zrotation Yrotation Xrotation
							JOINT Head
							{
								OFFSET 0.000000 7.643700 -2.377400
								CHANNELS 3 Zrotation Yrotation Xrotation
								End Site
								{
									OFFSET 0.000000 0.000000 0.000000
								}
							}
						}
					}
					JOINT LeftShoulder_virtual
					{
						OFFSET 0.000000 0.000000 0.000000
						CHANNELS 3 Zrotation Yrotation Xrotation
						JOINT LeftShoulder
						{
							OFFSET 4.392200 8.824978 0.174984
							CHANNELS 3 Zrotation Yrotation Xrotation
							JOINT LeftArm
							{
								OFFSET 8.771219 -2.981674 -0.026999
								CHANNELS 3 Zrotation Yrotation Xrotation
								JOINT LeftForeArm
								{
									OFFSET 8.512804 0.000000 -0.000000
									CHANNELS 3 Zrotation Yrotation Xrotation
									JOINT LeftHand
									{
										OFFSET 18.484802 0.000000 -0.000000
										CHANNELS 3 Zrotation Yrotation Xrotation
										End Site
										{
											OFFSET 0.000000 0.000000 0.000000
										}
									}
								}
							}
						}
					}
					JOINT RightShoulder_virtual
					{
						OFFSET 0.000000 0.000000 0.000000
						CHANNELS 3 Zrotation Yrotation Xrotation
						JOINT RightShoulder
						{
							OFFSET -4.392200 8.824993 0.141379
							CHANNELS 3 Zrotation Yrotation Xrotation
							JOINT RightArm
							{
								OFFSET -8.771282 -2.981682 -0.094208
								CHANNELS 3 Zrotation Yrotation Xrotation
								JOINT RightForeArm
								{
									OFFSET -8.494598 0.000000 0.000000
									CHANNELS 3 Zrotation Yrotation Xrotation
									JOINT RightHand
									{
										OFFSET -18.483803 0.000000 0.000001
										CHANNELS 3 Zrotation Yrotation Xrotation
										End Site
										{
											OFFSET 0.000000 0.000000 0.000000
										}
									}
								}
							}
						}
					}
				}
			}
		}
	}
}
MOTION
Frames: 11
Frame Time: 0.033333
5.884990 36.652786 97.698090 179.886651 4.663450 -179.827406 -3.628139 -3.839465 11.280798 -9.505779 -12.520979 -18.706823 15.852664 10.735673 16.816684 -5.405535 3.352643 13.661263 0.000000 0.000000 0.000000 2.345222 -0.928284 8.020572 3.619520 -2.157914 -5.359960 -8.216776 -1.090288 9.570975 4.286756 10.735114 11.762453 0.000000 0.000000 0.000000 1.361589 0.779614 -0.886800 -3.470895 3.037713 -8.985966 0.653446 -4.555447 3.222829 0.012353 0.023607 0.031594 0.175859 -2.839929 5.989555 3.255940 2.085413 1.500047 0.000000 0.000000 0.000000 1.472248 -1.734423 3.177660 1.360457 -3.821752 -6.972794 -15.025971 23.074590 -35.782371 -9.866315 -29.621923 -0.635365 0.000000 0.000000 0.000000 -1.876487 -1.013572 2.828432 10.438719 -4.241699 -15.271883 13.643331 -30.614206 -24.180027 0.100700 31.732820 -5.185428 0.000000 0.000000 0.000000 
5.883338 36.656055 97.697968 179.804320 4.774272 -179.787723 -3.556368 -3.967399 11.433829 -9.481062 -12.676286 -18.528039 15.981217 10.517024 16.999624 -5.413167 3.341133 14.019725 0.000000 0.000000 0.000000 2.350946 -0.704699 8.065840 3.704406 -2.591189 -5.343287 -8.044444 -1.389396 9.679694 4.391643 10.849128 11.919553 0.000000 0.000000 0.000000 1.270751 0.842598 -0.884121 -3.466713 3.091381 -8.928085 0.603937 -4.508526 3.246759 0.017235 0.047701 0.064306 0.192343 -2.752230 6.016219 3.294929 1.954024 1.495770 0.000000 0.000000 0.000000 1.484169 -1.695840 3.163724 1.322354 -3.926816 -6.966747 -15.077690 23.201104 -35.672907 -9.843010 -29.465880 -0.707819 0.000000 0.000000 0.000000 -1.856985 -0.991259 2.834664 10.478043 -4.207549 -15.250021 13.488841 -30.552474 -24.177678 0.154294 31.583932 -5.065538 0.000000 0.000000 0.000000 
5.883134 36.659405 97.709282 179.770675 4.914487 -179.806916 -3.578140 -3.802744 11.481126 -9.448722 -12.653957 -18.522408 15.929215 10.594786 16.981068 -5.387246 3.334009 14.005012 0.000000 0.000000 0.000000 2.347988 -0.568440 8.081365 3.691818 -2.470514 -5.319912 -8.058582 -1.429954 9.662951 4.337261 10.924701 11.961692 0.000000 0.000000 0.000000 1.214217 1.009198 -0.787190 -3.472056 3.219716 -8.819209 0.608821 -4.564929 3.268638 0.030102 -0.032188 0.064914 0.156444 -2.693473 6.024382 3.299183 1.782978 1.551342 0.000000 0.000000 0.000000 1.462032 -1.670666 3.117211 1.354616 -4.056037 -6.833825 -15.307883 23.274414 -35.391134 -9.657484 -29.578667 -0.602985 0.000000 0.000000 0.000000 -1.872178 -0.941588 2.827929 10.491886 -4.129678 -15.130076 13.314745 -30.496904 -24.156321 0.170081 31.426762 -5.057718 0.000000 0.000000 0.000000 
5.876990 36.665226 97.724396 179.825166 5.024960 -179.820467 -3.499111 -3.728444 11.508351 -9.474961 -12.617811 -18.526130 15.944197 10.667975 16.952584 -5.361310 3.323843 14.024900 0.000000 0.000000 0.000000 2.420065 -0.564472 8.085789 3.609632 -2.678470 -5.271453 -8.030783 -1.398157 9.561561 4.322913 11.047479 11.954586 0.000000 0.000000 0.000000 1.274480 0.908678 -0.723906 -3.455922 3.162144 -8.721925 0.606348 -4.424924 3.290132 -0.006759 0.048923 0.074179 0.224960 -2.686444 5.976098 3.369645 1.668582 1.663736 0.000000 0.000000 0.000000 1.492483 -1.561388 3.059096 1.389327 -4.168866 -6.771861 -15.582687 23.310123 -35.165830 -9.530546 -29.628678 -0.380536 0.000000 0.000000 0.000000 -1.821355 -0.870248 2.856327 10.462167 -4.052616 -14.953736 13.153556 -30.445531 -24.384344 0.210164 31.247798 -4.944901 0.000000 0.000000 0.000000 
5.870406 36.671864 97.743820 179.850888 4.947451 -179.822830 -3.455743 -3.866127 11.504993 -9.460585 -12.519494 -18.547305 15.904598 10.700807 16.926626 -5.362781 3.296572 14.076415 0.000000 0.000000 0.000000 2.486021 -0.762370 8.072138 3.529454 -2.567547 -5.187733 -7.977909 -1.410973 9.328242 4.299809 11.177423 11.975016 0.000000 0.000000 0.000000 1.263679 0.909497 -0.659534 -3.483382 3.186997 -8.662689 0.674465 -4.365008 3.272853 0.015205 0.058560 0.052257 0.210467 -2.632989 5.957685 3.224934 1.360431 1.820573 0.000000 0.000000 0.000000 1.528774 -1.569378 3.068575 1.370578 -4.432932 -6.743646 -15.737048 23.286077 -34.785108 -9.248403 -29.722729 -0.270043 0.000000 0.000000 0.000000 -1.820921 -0.872667 2.781980 10.446955 -4.086287 -14.686181 12.936292 -30.580382 -24.295229 0.237831 31.082121 -4.890907 0.000000 0.000000 0.000000 
5.860311 36.682117 97.774826 179.883072 4.954627 -179.787818 -3.417842 -3.872402 11.487728 -9.486288 -12.403694 -18.582045 15.877255 10.688724 16.837743 -5.345444 3.289569 14.147905 0.000000 0.000000 0.000000 2.541608 -0.831433 7.998447 3.421898 -2.352262 -5.137284 -7.933792 -1.615382 9.072820 4.284917 11.292738 12.003438 0.000000 0.000000 0.000000 1.287781 0.897671 -0.610807 -3.507213 3.193744 -8.639635 0.741603 -4.302977 3.254594 0.014252 0.054083 0.046617 0.287551 -2.539410 5.873388 3.105596 1.159616 1.983918 0.000000 0.000000 0.000000 1.597002 -1.505571 3.014971 1.367766 -4.710918 -6.683298 -16.045187 23.271932 -34.425905 -9.024038 -29.824199 0.040508 0.000000 0.000000 0.000000 -1.758286 -0.813110 2.777339 10.438716 -4.077474 -14.460439 12.930893 -30.746479 -24.505459 0.277554 30.890733 -4.801853 0.000000 0.000000 0.000000 
5.850976 36.692715 97.816833 179.925611 4.954156 -179.786083 -3.376204 -3.820505 11.486263 -9.498496 -12.293946 -18.632437 15.768660 10.569579 16.682199 -5.318229 3.299650 14.245250 0.000000 0.000000 0.000000 2.598930 -0.911361 8.000362 3.332736 -2.123048 -5.038713 -7.977826 -1.944316 8.803559 4.345375 11.419869 12.041658 0.000000 0.000000 0.000000 1.324081 0.876657 -0.531202 -3.504072 3.181082 -8.657016 0.826423 -4.242706 3.221869 0.017038 0.035105 0.025503 0.403252 -2.367752 5.819095 2.956902 0.999680 2.278948 0.000000 0.000000 0.000000 1.645694 -1.374012 3.008555 1.295956 -5.004239 -6.545266 -16.542665 23.353190 -33.833287 -8.711475 -29.918390 0.414448 0.000000 0.000000 0.000000 -1.669705 -0.682352 2.775758 10.440258 -4.028606 -13.926191 13.196975 -31.209699 -24.949274 0.236030 30.831470 -4.804096 0.000000 0.000000 0.000000 
5.837396 36.703842 97.859619 179.843840 4.902668 -179.808241 -3.436960 -3.725322 11.512160 -9.521347 -12.301038 -18.693895 15.772893 10.575746 16.489173 -5.333786 3.292899 14.401515 0.000000 0.000000 0.000000 2.565067 -0.898309 8.039500 3.234420 -2.200217 -4.935447 -7.959036 -2.163215 8.480482 4.419093 11.471342 12.158688 0.000000 0.000000 0.000000 1.275083 1.023494 -0.348894 -3.510336 3.103686 -8.667895 0.898088 -4.193188 3.234309 -0.004457 -0.023775 0.057768 0.547509 -2.395869 5.727159 2.698679 0.835600 2.663656 0.000000 0.000000 0.000000 1.797416 -1.270930 2.908170 1.125162 -5.386545 -6.388189 -17.173341 23.714239 -32.624341 -8.400094 -30.235359 0.864699 0.000000 0.000000 0.000000 -1.505132 -0.613749 2.749650 10.441654 -4.064378 -13.714558 13.693488 -31.826113 -25.429534 0.321417 31.094084 -4.613476 0.000000 0.000000 0.000000 
5.805832 36.713669 97.900490 179.924381 4.757444 -179.823322 -3.345904 -3.733746 11.565724 -9.557742 -12.161416 -18.793380 15.638346 10.395757 16.275525 -5.300003 3.344249 14.620986 0.000000 0.000000 0.000000 2.689621 -0.985998 8.118756 3.169932 -2.133201 -4.943393 -8.028289 -2.273023 8.109892 4.543620 11.534009 12.334714 0.000000 0.000000 0.000000 1.319230 0.939616 -0.137733 -3.419610 3.166797 -8.753373 1.022429 -4.074464 3.226061 0.024519 0.042788 0.032351 0.593230 -2.311756 5.747960 2.267291 0.614988 3.170304 0.000000 0.000000 0.000000 1.865244 -1.235678 2.973482 0.817718 -5.877666 -6.322764 -18.111276 24.186082 -30.740503 -8.150808 -30.748753 1.515931 0.000000 0.000000 0.000000 -1.457636 -0.585239 2.679594 10.512007 -4.195992 -13.047978 14.725476 -32.668733 -26.039347 0.216346 31.780426 -4.651695 0.000000 0.000000 0.000000 
5.758771 36.724663 97.942085 179.875231 4.753140 -179.819128 -3.384523 -3.701642 11.640358 -9.611581 -12.026157 -18.955703 15.558770 10.336509 16.065775 -5.247414 3.427253 14.781503 0.000000 0.000000 0.000000 2.696045 -0.969208 8.210494 3.113534 -2.125568 -5.033524 -8.144593 -2.182957 7.859978 4.674800 11.478121 12.485437 0.000000 0.000000 0.000000 1.314743 0.918286 0.109893 -3.364195 3.124355 -8.840726 1.076492 -4.019064 3.259569 0.020749 0.016682 0.023752 0.717905 -2.121306 5.798305 1.827896 0.490294 3.750926 0.000000 0.000000 0.000000 1.960400 -1.101430 2.964729 0.317505 -6.213258 -6.010668 -19.517573 25.106852 -27.816746 -7.847268 -31.806907 2.119137 0.000000 0.000000 0.000000 -1.365673 -0.471107 2.730122 10.623587 -4.223541 -12.589313 16.208345 -33.475700 -26.589320 0.150909 33.180939 -4.584171 0.000000 0.000000 0.000000 
5.687622 36.732632 97.992958 179.950240 4.896549 -179.824319 -3.329093 -3.664539 11.762334 -9.712993 -11.819425 -19.103940 15.442043 10.446944 15.865167 -5.199616 3.522004 14.964588 0.000000 0.000000 0.000000 2.802424 -0.847765 8.365290 3.020217 -1.859862 -5.150727 -8.380002 -1.806160 7.569970 4.795850 11.329425 12.616854 0.000000 0.000000 0.000000 1.352539 0.922664 0.399468 -3.183116 3.143457 -8.915005 1.161492 -3.892191 3.329187 0.016009 0.058525 0.032260 0.791322 -2.050110 5.891400 1.351453 0.464226 4.440767 0.000000 0.000000 0.000000 2.004219 -1.109111 3.046135 -0.358918 -6.609720 -5.724200 -21.370115 26.079136 -24.064498 -7.576407 -33.240000 2.815238 0.000000 0.000000 0.000000 -1.325415 -0.445445 2.657343 10.904870 -4.277401 -11.890558 17.933524 -34.297877 -26.353168 -0.086808 35.221947 -4.724098 0.000000 0.000000 0.000000 
